# xmcd
#
# Track frame offsets:
#	150
#	17440
#	37797
#	49975
#	68457
#	87825
#	99535
#	117797
#	144105
#	174192
#
# Disc length: 2671 seconds
#
# Revision: 2
# Processed by: cddbd v1.4b41PL2 Copyright (c) Steve Scherf et al.
# Submitted via: EZCDDA 4.3.2
#
DISCID=690a6d0a
DTITLE=The Dramatics - Joy Ride
DYEAR=1900
DGENRE=
TTITLE0=After this dance
TTITLE1=Be my girl
TTITLE2=Finger fever
TTITLE3=I can't get over you
TTITLE4=I get carried away
TTITLE5=Richest man alive
TTITLE6=Say the word
TTITLE7=Sun down is coming (hold back the night)
TTITLE8=Welcome back home
TTITLE9=Shake it well
EXTD=
EXTT0=
EXTT1=
EXTT2=
EXTT3=
EXTT4=
EXTT5=
EXTT6=
EXTT7=
EXTT8=
EXTT9=
PLAYORDER=
